<?xml version="1.0" standalone="no"?>
<!DOCTYPE svg PUBLIC "-//W3C//DTD SVG 1.1//EN" "http://www.w3.org/Graphics/SVG/1.1/DTD/svg11.dtd" >
<svg xmlns="http://www.w3.org/2000/svg">
<metadata>Generated by IcoMoon</metadata>
<defs>
<font id="icomoon" horiz-adv-x="1024">
<font-face units-per-em="1024" ascent="960" descent="-64" />
<missing-glyph horiz-adv-x="1024" />
<glyph unicode="&#x20;" horiz-adv-x="512" d="" />
<glyph unicode="&#xe900;" d="M139.636 727.273h633.018v-539.927h-633.018v539.927z" />
<glyph unicode="&#xe901;" d="M593.92 485.236h-249.484v-37.236h195.491c14.895 14.895 33.513 27.927 53.993 37.236z" />
<glyph unicode="&#xe902;" d="M508.276 410.764h-163.84v-37.236h145.222c3.724 13.033 11.171 26.065 18.618 37.236z" />
<glyph unicode="&#xe903;" d="M269.964 559.709h37.236v-37.236h-37.236v37.236z" />
<glyph unicode="&#xe904;" d="M344.436 336.291v-37.236h130.327c0 13.033 1.862 26.065 3.724 37.236h-134.051z" />
<glyph unicode="&#xe905;" d="M269.964 410.764h37.236v-37.236h-37.236v37.236z" />
<glyph unicode="&#xe906;" d="M828.509 280.436c0-72.611-57.716-130.327-130.327-130.327s-130.327 57.716-130.327 130.327c0 72.611 57.716 130.327 130.327 130.327s130.327-57.716 130.327-130.327z" />
<glyph unicode="&#xe907;" d="M772.655 671.418c0-11.171-7.447-18.618-18.618-18.618h-595.782c-11.171 0-18.618 7.447-18.618 18.618v130.327c0 11.171 7.447 18.618 18.618 18.618h595.782c11.171 0 18.618-7.447 18.618-18.618v-130.327z" />
<glyph unicode="&#xe908;" d="M344.436 559.709h297.891v-37.236h-297.891v37.236z" />
<glyph unicode="&#xe909;" d="M344.436 634.182h297.891v-37.236h-297.891v37.236z" />
<glyph unicode="&#xe90a;" d="M269.964 634.182h37.236v-37.236h-37.236v37.236z" />
<glyph unicode="&#xe90b;" d="M269.964 336.291h37.236v-37.236h-37.236v37.236z" />
<glyph unicode="&#xe90c;" d="M269.964 485.236h37.236v-37.236h-37.236v37.236z" />
<glyph unicode="&#xe90d;" d="M884.364 280.436c0-102.4-83.782-186.182-186.182-186.182s-186.182 83.782-186.182 186.182c0 102.4 83.782 186.182 186.182 186.182s186.182-83.782 186.182-186.182z" />
<glyph unicode="&#xe90e;" d="M780.102 222.72l-53.993 53.993c0 1.862 0 1.862 0 3.724 0 7.447-3.724 14.895-9.309 20.48v72.611h-37.236v-72.611c-5.585-5.585-9.309-13.033-9.309-20.48 0-14.895 13.033-27.927 27.927-27.927h1.862l53.993-53.993 26.065 24.204z" />
<glyph unicode="&#xe90f;" d="M884.364 242.978c0-39.151-31.757-70.926-70.926-70.926h-602.874c-39.169 0-70.926 31.775-70.926 70.926v390.095c0 39.187 31.757 70.926 70.926 70.926h602.874c39.169 0 70.926-31.74 70.926-70.926v-390.095z" />
<glyph unicode="&#xe910;" d="M370.147 491.221c0-9.806-7.926-17.732-17.732-17.732h-88.658c-9.806 0-17.732 7.926-17.732 17.732v70.926c0 9.806 7.926 17.732 17.732 17.732h88.658c9.806 0 17.732-7.926 17.732-17.732v-70.926zM352.416 402.563h-106.39v-35.463h106.39v35.463zM494.268 313.905h-248.242v-35.463h248.242v35.463zM494.268 402.563h-106.39v-35.463h106.39v35.463zM636.121 402.563h-106.39v-35.463h106.39v35.463zM777.974 402.563h-106.39v-35.463h106.39v35.463z" />
<glyph unicode="&#xe911;" d="M441.074 579.879h336.9v-70.926h-336.9v70.926z" />
<glyph unicode="&#xe912;" d="M553.175 257.044h-38.191c0-114.573-114.573-133.669-114.573-133.669v-38.191h267.338v38.191c0 0-114.573 19.096-114.573 133.669z" />
<glyph unicode="&#xe913;" d="M734.583 553.026c0-116.483-93.568-210.051-210.051-210.051s-210.051 93.568-210.051 210.051c0 116.483 93.568 210.051 210.051 210.051s210.051-93.568 210.051-210.051z" />
<glyph unicode="&#xe914;" d="M264.167 786.549l27.005 27.005 529.297-529.297-27.005-27.005-529.297 529.297z" />
<glyph unicode="&#xe915;" d="M524.531 323.879c-126.031 0-229.147 103.116-229.147 229.147s103.116 229.147 229.147 229.147c126.031 0 229.147-103.116 229.147-229.147s-101.207-229.147-229.147-229.147zM524.531 743.981c-105.026 0-190.956-85.93-190.956-190.956s85.93-190.956 190.956-190.956c105.026 0 190.956 85.93 190.956 190.956s-85.93 190.956-190.956 190.956z" />
<glyph unicode="&#xe916;" d="M625.738 369.708c-55.377 0-126.031 34.372-187.137 97.387-42.010 42.010-72.563 89.749-87.84 133.669-17.186 49.648-11.457 89.749 13.367 116.483 24.824 24.824 66.834 30.553 114.573 13.367 43.92-15.276 91.659-45.829 133.669-87.84 91.659-91.659 124.121-200.503 74.473-250.152-15.276-17.186-36.282-22.915-61.106-22.915zM425.234 700.062c-15.276 0-26.734-3.819-34.372-11.457-13.367-13.367-15.276-42.010-3.819-76.382 13.367-40.101 40.101-82.111 78.292-118.393 80.201-80.201 168.041-103.116 196.684-74.473s5.729 116.483-74.473 196.684c-38.191 38.191-80.201 64.925-118.393 78.292-17.186 3.819-32.462 5.729-43.92 5.729z" />
<glyph unicode="&#xe917;" d="M327.847 484.282c-5.729 0-9.548 1.91-13.367 5.729-7.638 7.638-7.638 19.096 0 26.734l248.242 248.242c7.638 7.638 19.096 7.638 26.734 0s7.638-19.096 0-26.734l-248.242-248.242c-3.819-3.819-9.548-5.729-13.367-5.729z" />
<glyph unicode="&#xe918;" d="M474.883 337.246c-5.729 0-9.548 1.91-13.367 5.729-7.638 7.638-7.638 19.096 0 26.734l248.242 248.242c7.638 7.638 19.096 7.638 26.734 0s7.638-19.096 0-26.734l-248.242-248.242c-1.91-3.819-7.638-5.729-13.367-5.729z" />
<glyph unicode="&#xe919;" d="M363.194 417.733l297.055 297.055 27.005-27.005-297.055-297.055-27.005 27.005z" />
<glyph unicode="&#xe91a;" d="M363.214 687.796l27.009 27.001 297.013-297.097-27.009-27.001-297.013 297.097z" />
<glyph unicode="&#xe91b;" d="M524.531 237.949c-84.021 0-162.312 32.462-223.418 91.659-57.287 61.106-91.659 139.398-91.659 223.418s32.462 164.222 91.659 223.418c17.186 17.186 36.282 32.462 55.377 43.92l30.553-47.739c-17.186-9.548-30.553-22.915-45.829-36.282-49.648-49.648-76.382-112.664-76.382-181.408s26.734-133.669 76.382-181.408c47.739-49.648 112.664-76.382 181.408-76.382s133.669 26.734 181.408 76.382l13.367 13.367 40.101-42.010-13.367-13.367c-55.377-59.196-135.579-93.568-219.599-93.568z" />
<glyph unicode="&#xe91c;" d="M400.41 123.375h267.338v-38.191h-267.338z" />
<glyph unicode="&#xe91d;" d="M792.282 562.57c-17.56 0-32.2-8.584-38.040-22.891-17.56-25.791-55.619-31.514-79.039-20.068-4.331 9.897-251.757 77.334-251.757 74.492-32.2-17.188-61.479 37.217-58.539 63.027v2.861c2.92 5.723 2.92 11.465 2.92 17.188 0 31.494-26.359 57.285-58.539 57.285-32.219 0-58.559-25.771-58.559-57.285 0-25.771 17.56-45.84 38.059-54.443 32.611-13.288 77.726-53.699 74.708-80.039 13.013-23.341-18.403-145.986-16.149-154.805-17.56-17.188-52.699-14.307-67.339-8.584-5.84 8.584-17.56 11.465-29.28 11.465-32.2 0-58.539-25.771-58.539-57.305 0-31.494 26.34-57.285 58.539-57.285 20.5 0 35.12 8.604 46.839 22.93 17.56 25.752 46.859 48.682 73.199 48.682 3.802-5.566 319.116 117.432 319.116 120.293 2.901 11.465 49.76 22.93 90.739 14.326h11.7c23.42 0 43.939 20.049 43.939 42.959s-20.539 37.197-43.978 37.197z" />
<glyph unicode="&#xe91e;" d="M663.503 273.283c-23.4 0-11.7 54.404-11.7 63.008 2.881 4.272-17.56 237.744-17.56 237.744 2.92 8.604 5.86 17.188 20.48 17.188 0 0 0 0 2.92 0h2.94c32.2 0 58.52 25.771 58.52 57.285s-26.34 57.285-58.52 57.285c-32.219 0-58.559-25.752-58.559-57.285 0-5.723 0-11.445 2.901-17.188 0 0 11.739-28.633-14.62-25.752 0 0-221.4-76.864-232.159-78.804-27.006-49.466-98.833-24.145-119.117-7.153-5.86 8.604-17.56 14.326-32.219 14.326-23.42 0-43.9-20.068-43.9-42.979 0-22.93 20.48-42.959 43.919-42.959 8.8 0 17.56 2.861 23.42 5.723 35.12 17.207 99.539 5.742 108.319-25.752v-2.881c1.313-6.448 47.192-95.051 52.68-103.106 29.28-54.424-43.9-77.334-43.9-77.334-20.5 0-38.059-17.188-38.059-40.098 0-22.93 20.48-42.959 43.9-42.959s43.919 20.029 43.919 42.959c5.86 45.801 29.28 74.473 73.179 77.314 6.781-2.195 111.239 5.742 120.019 8.584 32.219-5.703 14.62-31.494 14.62-74.473 0-31.494 26.379-57.285 58.559-57.285 32.219 0 58.559 25.771 58.559 57.285 0.020 31.533-26.32 57.305-58.539 57.305z" />
<glyph unicode="&#xe91f;" d="M692.057 448c0-97.414-78.969-176.383-176.383-176.383s-176.383 78.969-176.383 176.383c0 97.414 78.969 176.383 176.383 176.383s176.383-78.969 176.383-176.383z" />
<glyph unicode="&#xe920;" d="M561.044 281.847c6.487 12.641-15.678 16.404-33.121 15.796s-34.297-10.72-31.102-21.813c46.526-71.317 11.484-79.901-8.976-94.228-17.56-8.584-29.28-28.633-29.28-48.682 0-31.494 26.359-57.285 58.559-57.285s58.559 25.771 58.559 57.285c0.020 54.424-35.12 131.758-14.64 148.926z" />
<glyph unicode="&#xe921;" d="M806.941 390.715c-11.72 0-23.4-2.861-32.2-8.584-34.924-14.248-66.927 11.132-90.308 28.319-11.68 7.232-24.948-11.112-28.829-18.481s-9.799-33.376 13.738-32.748c39.843 12.837 87.799-54.424 87.799-54.424 8.8-20.029 29.299-31.494 52.699-31.494 32.239 0 58.559 25.771 58.559 57.285-2.901 34.355-29.24 60.127-61.46 60.127z" />
<glyph unicode="&#xe922;" d="M464.445 731.584c38.040-77.354 35.12-105.986 14.64-114.59-18.226-13.131 11.171-30.887 32.905-28.143s41.332 13.483 27.829 32.415c-33.611 59.343 9.505 98.833 9.505 98.833 14.64 8.584 23.4 25.771 23.4 42.959 0.020 31.533-26.32 57.305-58.52 57.305s-58.539-25.771-58.539-57.285c0-8.584 2.92-17.188 5.86-25.771 0-2.881 0-2.881 2.92-5.723z" />
<glyph unicode="&#xe923;" d="M484.945 448c-32.219 0-58.539 25.771-58.539 57.285s26.34 57.285 58.539 57.285c32.2 0 58.539-25.771 58.539-57.285s-26.34-57.285-58.539-57.285z" />
<glyph unicode="&#xe924;" d="M455.665 362.062c-17.56 0-29.28 11.465-29.28 28.652s11.7 28.652 29.28 28.652c17.56 0 29.28-11.465 29.28-28.652s-11.72-28.652-29.28-28.652z" />
<glyph unicode="&#xe925;" d="M558.124 330.568c-23.42 0-43.919 20.029-43.919 42.959s20.48 42.959 43.919 42.959c23.4 0 43.9-20.029 43.9-42.959s-20.5-42.959-43.9-42.959z" />
<glyph unicode="&#xe926;" d="M175.1 543.307h673.801v-336.9h-673.801v336.9z" />
<glyph unicode="&#xe927;" d="M175.1 206.407h673.801v-70.926h-673.801v70.926z" />
<glyph unicode="&#xe928;" d="M565.195 454.649h212.779v-319.169h-212.779v319.169z" />
<glyph unicode="&#xe929;" d="M246.026 454.649h248.242v-195.048h-248.242v195.048z" />
<glyph unicode="&#xe92a;" d="M263.758 436.918h212.779v-159.584h-212.779v159.584z" />
<glyph unicode="&#xe92b;" d="M733.645 286.199c-5.319 0-8.866-3.546-8.866-8.866v-35.463c0-5.319 3.546-8.866 8.866-8.866s8.866 3.546 8.866 8.866v35.463c0 5.319-3.546 8.866-8.866 8.866z" />
<glyph unicode="&#xe92c;" d="M565.195 543.307c0-29.379-23.816-53.195-53.195-53.195s-53.195 23.816-53.195 53.195c0 29.379 23.816 53.195 53.195 53.195s53.195-23.816 53.195-53.195z" />
<glyph unicode="&#xe92d;" d="M777.974 543.307c0-29.379-23.816-53.195-53.195-53.195s-53.195 23.816-53.195 53.195c0 29.379 23.816 53.195 53.195 53.195s53.195-23.816 53.195-53.195z" />
<glyph unicode="&#xe92e;" d="M352.416 543.307c0-29.379-23.816-53.195-53.195-53.195s-53.195 23.816-53.195 53.195c0 29.379 23.816 53.195 53.195 53.195s53.195-23.816 53.195-53.195z" />
<glyph unicode="&#xe92f;" d="M795.706 773.818h-567.411c-19.505 0-35.463-15.958-35.463-35.463v-53.195h638.338v53.195c0 19.505-15.958 35.463-35.463 35.463z" />
<glyph unicode="&#xe930;" d="M458.805 685.16h106.39v-141.853h-106.39v141.853z" />
<glyph unicode="&#xe931;" d="M742.511 685.16h-88.658l17.732-141.853h106.39z" />
<glyph unicode="&#xe932;" d="M281.489 685.16h88.658l-17.732-141.853h-106.39z" />
<glyph unicode="&#xe933;" d="M671.584 543.307c0-29.379-23.816-53.195-53.195-53.195s-53.195 23.816-53.195 53.195c0 29.379 23.816 53.195 53.195 53.195s53.195-23.816 53.195-53.195z" />
<glyph unicode="&#xe934;" d="M884.364 543.307c0-30.144-23.051-53.195-53.195-53.195s-53.195 23.051-53.195 53.195c0 30.144 23.051 53.195 53.195 53.195l53.195-53.195z" />
<glyph unicode="&#xe935;" d="M458.805 543.307c0-29.379-23.816-53.195-53.195-53.195s-53.195 23.816-53.195 53.195c0 29.379 23.816 53.195 53.195 53.195s53.195-23.816 53.195-53.195z" />
<glyph unicode="&#xe936;" d="M139.636 543.307c0-30.144 23.051-53.195 53.195-53.195s53.195 23.051 53.195 53.195c0 30.144-23.051 53.195-53.195 53.195l-53.195-53.195z" />
<glyph unicode="&#xe937;" d="M653.853 685.16h-88.658v-141.853h106.39z" />
<glyph unicode="&#xe938;" d="M831.169 685.16h-88.658l35.463-141.853h106.39z" />
<glyph unicode="&#xe939;" d="M370.147 685.16h88.658v-141.853h-106.39z" />
<glyph unicode="&#xe93a;" d="M192.831 685.16h88.658l-35.463-141.853h-106.39z" />
<glyph unicode="&#xe93b;" d="M408.566 507.475h206.869v-413.737h-206.869v413.737z" />
<glyph unicode="&#xe93c;" d="M677.495 797.091h206.869v-703.354h-206.869v703.354z" />
<glyph unicode="&#xe93d;" d="M139.636 341.98h206.869v-248.242h-206.869v248.242z" />
<glyph unicode="&#xe93e;" d="M243.071 797.091l206.869-206.869v206.869z" />
<glyph unicode="&#xe93f;" d="M209.843 498.48l-58.511 58.511 206.25 206.25 58.511-58.511-206.25-206.25z" />
<glyph unicode="&#xe940;" d="M280.531 256.786v-140.995c0 0 0-40.155 40.256-40.155s80.511 0 80.511 0c0 0 0 40.256-40.256 40.256v80.511l-80.511 60.383z" />
<glyph unicode="&#xe941;" d="M481.808 317.17c-40.256-60.383-120.767-120.767-120.767-120.767l-80.511 60.383c0 0 60.383 80.511 60.383 181.15l140.894-120.767z" />
<glyph unicode="&#xe942;" d="M622.703 317.17v-201.378c0 0 0-40.155 40.256-40.155s80.511 0 80.511 0c0 0 0 40.256-40.256 40.256v261.661l-80.511-60.383z" />
<glyph unicode="&#xe943;" d="M562.319 317.17v-201.378c0 0 0-40.155 40.256-40.155s80.511 0 80.511 0c0 0 0 40.256-40.256 40.256v201.278h-80.511z" />
<glyph unicode="&#xe944;" d="M562.319 276.914c-60.383 0-120.767 40.256-120.767 40.256s-60.383 40.256-100.639-20.128c-40.256-60.383-100.639-100.639-100.639-100.639l-80.511 60.383c0 0 60.383 80.511 60.383 181.15s100.639 120.767 100.639 120.767h161.022l60.383 40.256 60.383 161.022c0 0 20.128 40.215 60.383 40.215s40.256 0 40.256 0 52.050-3.442 80.511-60.383c20.128-40.256 100.639-60.383 100.639-60.383s0-100.599-120.767-100.599c-40.256 0-40.256-20.128-40.256-40.256 0 0 0-100.639 0-120.767 0-60.383-60.383-100.639-80.511-120.767z" />
<glyph unicode="&#xe945;" d="M159.764 256.786v-140.995c0 0 0-40.155 40.256-40.155s80.511 0 80.511 0c0 0 0 40.256-40.256 40.256v80.511l-80.511 60.383z" />
<glyph unicode="&#xe946;" d="M723.342 417.808c0 20.128 0 120.767 0 120.767 0 20.128 0 40.256 40.256 40.256 0 0 60.383 100.639 20.128 160.982-28.461 56.941-80.511 60.383-80.511 60.383s0 0-40.256 0-60.383-40.215-60.383-40.215l-60.383-161.022-60.383-40.256h-161.022c0 0-100.639-20.128-100.639-120.767s-60.383-181.15-60.383-181.15c0 0 140.894-20.128 181.15 40.256s100.639 20.128 100.639 20.128c0 0 55.573-40.256 120.767-40.256s161.022 18.014 161.022 140.894z" />
<glyph unicode="&#xe947;" d="M622.703 739.853l-20.128-120.767c0 0 20.128-60.383 60.383-80.511s80.511 0 80.511 60.383c0 20.128 0 40.256 0 40.256l-60.383 120.767-60.383-20.128z" />
<glyph unicode="&#xe948;" d="M777.827 713.827c7.87-7.87 7.87-20.591 0-28.461s-34.358-5.897-34.358-5.897c0 0-1.973 26.488 5.897 34.358s20.591 7.87 28.461 0z" />
<glyph unicode="&#xe949;" d="M884.364 679.429c0 0-13.264 3.381-30.312 9.983l-4.046-4.046c-7.87-7.87-7.87-20.591 0-28.461l22.221-22.221c11.976 23.167 12.137 44.744 12.137 44.744z" />
<glyph unicode="&#xe94a;" d="M582.447 706.32l-40.256-107.361-60.383-40.256h-161.022c0 0-43.597-5.918-73.386-43.637 16.062-26.206 73.809-126.241 133.266-187.067 31.46 8.695 60.886-10.829 60.886-10.829s24.254-16.142 57.364-27.978c49.192 21.98 83.53 71.232 83.53 128.616v288.511z" />
<glyph unicode="&#xe94b;" d="M280.511 498.319c-2.737 0-5.495 0.543-8.152 1.731-3.422 1.53-84.295 38.283-107.663 118.854-15.337 52.835-2.315 110.844 38.706 172.374 6.179 9.259 18.658 11.775 27.917 5.575 9.239-6.179 11.734-18.658 5.575-27.917-34.056-51.064-45.368-97.7-33.633-138.539 17.954-62.517 116.842-71.393 117.526-71.695 10.104-4.569-17.37-38.323-21.899-48.468-3.361-7.467-10.688-11.916-18.377-11.916z" />
<glyph unicode="&#xe94c;" d="M439.865 223.030h-146.422l-29.272 29.044v146.442l73.19 73.211 175.714-175.714z" />
<glyph unicode="&#xe94d;" d="M139.636 68.706v58.565l124.535 124.804 29.272-29.272z" />
<glyph unicode="&#xe94e;" d="M615.564 749.942l175.722-175.722-278.189-278.189-175.722 175.722 278.189 278.189z" />
<glyph unicode="&#xe94f;" d="M732.712 779.229l87.854-87.854-73.226-73.226-87.854 87.854 73.226 73.226z" />
<glyph unicode="&#xe950;" d="M708.349 842.731l175.722-175.722-29.285-29.285-175.722 175.722 29.285 29.285z" />
<glyph unicode="&#xe951;" d="M483.816 618.149l102.511-102.482-29.28-29.289-102.511 102.482 29.28 29.289z" />
<glyph unicode="&#xe952;" d="M410.542 544.951l102.496-102.496-29.285-29.285-102.496 102.496 29.285 29.285z" />
<glyph unicode="&#xe953;" d="M557.010 691.366l102.511-102.511-29.299-29.299-102.511 102.511 29.299 29.299z" />
<glyph unicode="&#xe954;" d="M222.384 75.636h579.232c45.511 0 82.747 37.236 82.747 82.747v461.317c0 33.099-20.687 64.129-53.786 76.541l-318.578 124.121-318.578-124.121c-33.099-12.412-53.786-43.442-53.786-76.541v-461.317c0-45.511 37.236-82.747 82.747-82.747z" />
<glyph unicode="&#xe955;" d="M677.495 448h-124.121v124.121h-82.747v-124.121h-124.121v-82.747h124.121v-124.121h82.747v124.121h124.121z" />
<glyph unicode="&#xe956;" d="M896 170.667c0-58.923-47.744-106.667-106.667-106.667h-554.667c-58.901 0-106.667 47.744-106.667 106.667v554.667c0 58.923 47.765 106.667 106.667 106.667h554.667c58.923 0 106.667-47.744 106.667-106.667v-554.667z" />
<glyph unicode="&#xe957;" d="M384 618.667c0-23.564-19.103-42.667-42.667-42.667s-42.667 19.103-42.667 42.667c0 23.564 19.103 42.667 42.667 42.667s42.667-19.103 42.667-42.667z" />
<glyph unicode="&#xe958;" d="M533.333 629.333c0-29.455-23.878-53.333-53.333-53.333s-53.333 23.878-53.333 53.333c0 29.455 23.878 53.333 53.333 53.333s53.333-23.878 53.333-53.333z" />
<glyph unicode="&#xe959;" d="M704 640c0-35.346-28.654-64-64-64s-64 28.654-64 64c0 35.346 28.654 64 64 64s64-28.654 64-64z" />
<glyph unicode="&#xe95a;" d="M746.667 192v181.333c0 64.789-52.544 117.333-117.333 117.333s-117.333-52.544-117.333-117.333v-181.333h234.667z" />
<glyph unicode="&#xe95b;" d="M576 277.333v152.747c0 45.227-38.187 81.92-85.333 81.92-47.104 0-85.333-36.693-85.333-81.92v-152.747h170.667z" />
<glyph unicode="&#xe95c;" d="M426.667 341.333v112c0 44.203-33.451 80-74.667 80-41.259 0-74.667-35.797-74.667-80v-112h149.333z" />
<glyph unicode="&#xe95d;" d="M234.667 682.667v-533.333c0-47.125 38.208-85.333 85.333-85.333h341.333c47.125 0 85.333 38.208 85.333 85.333v533.333h-512z" />
<glyph unicode="&#xe95e;" d="M469.333 640h42.667v-490.667h-42.667v490.667z" />
<glyph unicode="&#xe95f;" d="M597.333 640h42.667v-490.667h-42.667v490.667z" />
<glyph unicode="&#xe960;" d="M341.333 640h42.667v-490.667h-42.667v490.667z" />
<glyph unicode="&#xe961;" d="M234.667 746.667h512v-85.333h-512v85.333z" />
<glyph unicode="&#xe962;" d="M192 682.667h597.333v-85.333h-597.333v85.333z" />
<glyph unicode="&#xe963;" d="M405.333 704v85.333h170.667v-85.333h42.667v85.333c0 23.552-19.115 42.667-42.667 42.667h-170.667c-23.552 0-42.667-19.115-42.667-42.667v-85.333h42.667z" />
<glyph unicode="&#xe964;" d="M908.437 766.571l-77.888 77.867c-11.84 11.861-31.125 11.861-42.987 0l-36.651-36.693 120.832-120.832 36.693 36.651c11.861 11.883 11.861 31.104 0 43.008z" />
<glyph unicode="&#xe965;" d="M811.349 626.52l-543.158-543.158-120.844 120.844 543.158 543.158 120.844-120.844z" />
<glyph unicode="&#xe966;" d="M690.447 747.326l60.413 60.455 120.926-120.84-60.413-60.455-120.926 120.84z" />
<glyph unicode="&#xe967;" d="M147.307 204.16l-40.64-161.493 161.515 40.661z" />
<glyph unicode="&#xe968;" d="M127.253 124.331l-20.587-81.664 81.643 20.587z" />
<glyph unicode="&#xe969;" d="M89.574-25.6c-13.67 0-26.522 5.325-36.198 14.976s-14.976 22.528-14.976 36.198 5.325 26.522 14.976 36.198l466.765 444.979 50.765-50.816-445.363-466.765c-9.446-9.446-22.298-14.771-35.968-14.771z" />
<glyph unicode="&#xe96a;" d="M519.936 488.832l33.101-33.126-436.326-457.267c-7.245-7.245-16.896-11.238-27.136-11.238s-19.891 3.994-27.136 11.238c-14.95 14.95-14.95 39.296-0.435 53.837l457.933 436.557zM520.371 524.621l-476.032-453.811c-24.986-24.986-24.986-65.485 0-90.47v0c12.493-12.493 28.851-18.739 45.235-18.739s32.742 6.246 45.235 18.739l453.99 475.776-68.429 68.506z" />
<glyph unicode="&#xe96b;" d="M665.6 281.6c-176.461 0-320 143.539-320 320s143.539 320 320 320 320-143.539 320-320-143.539-320-320-320z" />
<glyph unicode="&#xe96c;" d="M665.6 908.8c169.395 0 307.2-137.805 307.2-307.2s-137.805-307.2-307.2-307.2-307.2 137.805-307.2 307.2 137.805 307.2 307.2 307.2zM665.6 934.4c-183.808 0-332.8-148.992-332.8-332.8s148.992-332.8 332.8-332.8 332.8 148.992 332.8 332.8c0 183.808-148.992 332.8-332.8 332.8v0z" />
</font>
</defs>
</svg>
